<mxfile host="65bd71144e">
    <diagram id="shWfuC4W8ulgkWfh5vig" name="Página-1">
        <mxGraphModel dx="1066" dy="614" grid="1" gridSize="10" guides="1" tooltips="1" connect="1" arrows="1" fold="1" page="1" pageScale="1" pageWidth="827" pageHeight="1169" math="0" shadow="0">
            <root>
                <mxCell id="0"/>
                <mxCell id="1" parent="0"/>
                <mxCell id="23" value="" style="group" vertex="1" connectable="0" parent="1">
                    <mxGeometry x="290" y="40" width="441" height="370" as="geometry"/>
                </mxCell>
                <mxCell id="22" value="Pagina de opciones" style="text;html=1;strokeColor=none;fillColor=none;align=center;verticalAlign=middle;whiteSpace=wrap;rounded=0;fontSize=12;" vertex="1" parent="23">
                    <mxGeometry x="155.5" y="340" width="130" height="30" as="geometry"/>
                </mxCell>
                <mxCell id="5" value="" style="rounded=0;whiteSpace=wrap;html=1;fontSize=15;" vertex="1" parent="23">
                    <mxGeometry y="-30" width="441" height="350" as="geometry"/>
                </mxCell>
                <mxCell id="6" value="&lt;font style=&quot;font-size: 12px;&quot;&gt;&lt;b&gt;Start&lt;/b&gt;&lt;/font&gt;" style="rounded=1;whiteSpace=wrap;html=1;fontSize=15;" vertex="1" parent="23">
                    <mxGeometry x="351" y="270" width="80" height="40" as="geometry"/>
                </mxCell>
                <mxCell id="10" value="" style="group" vertex="1" connectable="0" parent="23">
                    <mxGeometry x="11" y="-8.125" width="205" height="142.1875" as="geometry"/>
                </mxCell>
                <mxCell id="7" value="&amp;nbsp; Dificultad" style="rounded=1;whiteSpace=wrap;html=1;fontSize=12;align=left;" vertex="1" parent="10">
                    <mxGeometry width="205" height="142.1875" as="geometry"/>
                </mxCell>
                <mxCell id="8" value="&lt;ul&gt;&lt;li&gt;Easy&lt;/li&gt;&lt;li&gt;Medium&lt;/li&gt;&lt;li style=&quot;&quot;&gt;Hard&lt;/li&gt;&lt;/ul&gt;" style="rounded=1;whiteSpace=wrap;html=1;fontSize=12;align=left;" vertex="1" parent="10">
                    <mxGeometry x="71" y="12.926136363636363" width="120" height="116.33522727272728" as="geometry"/>
                </mxCell>
                <mxCell id="13" value="" style="group" vertex="1" connectable="0" parent="23">
                    <mxGeometry x="11" y="155.9375" width="420" height="98.4375" as="geometry"/>
                </mxCell>
                <mxCell id="11" value="&lt;blockquote style=&quot;margin: 0 0 0 40px; border: none; padding: 0px;&quot;&gt;&amp;nbsp; Cantidad de preguntas&lt;/blockquote&gt;" style="rounded=1;whiteSpace=wrap;html=1;fontSize=12;align=left;" vertex="1" parent="13">
                    <mxGeometry width="420" height="98.4375" as="geometry"/>
                </mxCell>
                <mxCell id="12" value="&lt;ul&gt;&lt;li&gt;5&lt;/li&gt;&lt;li&gt;10&lt;/li&gt;&lt;li&gt;20&lt;/li&gt;&lt;/ul&gt;" style="rounded=1;whiteSpace=wrap;html=1;fontSize=12;align=left;" vertex="1" parent="13">
                    <mxGeometry x="204.00000000000003" y="10.9375" width="180" height="76.5625" as="geometry"/>
                </mxCell>
                <mxCell id="18" value="" style="group" vertex="1" connectable="0" parent="23">
                    <mxGeometry x="241" y="-8.125" width="190" height="142.1875" as="geometry"/>
                </mxCell>
                <mxCell id="14" value="" style="rounded=1;whiteSpace=wrap;html=1;fontSize=12;" vertex="1" parent="18">
                    <mxGeometry width="190" height="142.1875" as="geometry"/>
                </mxCell>
                <mxCell id="15" value="&lt;ul&gt;&lt;li&gt;Cualquiera&lt;/li&gt;&lt;li&gt;Alguna en especifico&lt;/li&gt;&lt;/ul&gt;" style="rounded=1;whiteSpace=wrap;html=1;fontSize=12;align=left;" vertex="1" parent="18">
                    <mxGeometry x="20" y="54.6875" width="150" height="65.625" as="geometry"/>
                </mxCell>
                <mxCell id="17" value="Categorias" style="text;html=1;strokeColor=none;fillColor=none;align=center;verticalAlign=middle;whiteSpace=wrap;rounded=0;fontSize=12;" vertex="1" parent="18">
                    <mxGeometry x="50" y="10.9375" width="80" height="32.8125" as="geometry"/>
                </mxCell>
                <mxCell id="63" value="&lt;blockquote style=&quot;margin: 0 0 0 40px; border: none; padding: 0px;&quot;&gt;&lt;b&gt;Nombre:&amp;nbsp;&lt;/b&gt;&lt;/blockquote&gt;" style="rounded=1;whiteSpace=wrap;html=1;strokeColor=default;fontSize=12;fillColor=default;align=left;" vertex="1" parent="23">
                    <mxGeometry x="11" y="270" width="319" height="40" as="geometry"/>
                </mxCell>
                <mxCell id="64" value="" style="rounded=0;whiteSpace=wrap;html=1;strokeColor=#666666;fontSize=12;fillColor=#f5f5f5;fontColor=#333333;" vertex="1" parent="23">
                    <mxGeometry x="151.5" y="280" width="158.5" height="20" as="geometry"/>
                </mxCell>
                <mxCell id="30" value="" style="group" vertex="1" connectable="0" parent="1">
                    <mxGeometry x="19" y="10" width="200" height="320" as="geometry"/>
                </mxCell>
                <mxCell id="2" value="" style="rounded=0;whiteSpace=wrap;html=1;" vertex="1" parent="30">
                    <mxGeometry width="200" height="280" as="geometry"/>
                </mxCell>
                <mxCell id="3" value="&lt;b&gt;&lt;font style=&quot;font-size: 15px;&quot;&gt;Trivia!&lt;/font&gt;&lt;/b&gt;" style="text;html=1;strokeColor=none;fillColor=none;align=center;verticalAlign=middle;whiteSpace=wrap;rounded=0;" vertex="1" parent="30">
                    <mxGeometry x="70" y="20" width="60" height="30" as="geometry"/>
                </mxCell>
                <mxCell id="4" value="&lt;b&gt;Juego nuevo&lt;/b&gt;" style="rounded=1;whiteSpace=wrap;html=1;" vertex="1" parent="30">
                    <mxGeometry x="60" y="240" width="80" height="30" as="geometry"/>
                </mxCell>
                <mxCell id="27" value="&lt;ul&gt;&lt;li&gt;&lt;span style=&quot;background-color: initial; text-align: left;&quot;&gt;Pedro 122&lt;/span&gt;&lt;/li&gt;&lt;li style=&quot;&quot;&gt;Jose 345&lt;/li&gt;&lt;li style=&quot;&quot;&gt;Y asi&lt;/li&gt;&lt;/ul&gt;" style="rounded=1;whiteSpace=wrap;html=1;fontSize=12;align=left;" vertex="1" parent="30">
                    <mxGeometry x="20" y="60" width="160" height="160" as="geometry"/>
                </mxCell>
                <mxCell id="28" value="&lt;b&gt;Puntajes&lt;/b&gt;" style="text;html=1;strokeColor=none;fillColor=none;align=center;verticalAlign=middle;whiteSpace=wrap;rounded=0;fontSize=12;" vertex="1" parent="30">
                    <mxGeometry x="70" y="70" width="60" height="30" as="geometry"/>
                </mxCell>
                <mxCell id="29" value="Pagina de Inicio" style="text;html=1;strokeColor=none;fillColor=none;align=center;verticalAlign=middle;whiteSpace=wrap;rounded=0;fontSize=12;" vertex="1" parent="30">
                    <mxGeometry x="45" y="290" width="110" height="30" as="geometry"/>
                </mxCell>
                <mxCell id="33" style="edgeStyle=none;html=1;exitX=1;exitY=0.5;exitDx=0;exitDy=0;entryX=0;entryY=0.5;entryDx=0;entryDy=0;fontSize=12;" edge="1" parent="1" source="4" target="5">
                    <mxGeometry relative="1" as="geometry"/>
                </mxCell>
                <mxCell id="57" value="" style="group" vertex="1" connectable="0" parent="1">
                    <mxGeometry x="19" y="470" width="790" height="590" as="geometry"/>
                </mxCell>
                <mxCell id="54" value="" style="group;dashed=1;strokeColor=#006EAF;fillColor=#1BA1E2;fontColor=#ffffff;container=0;" vertex="1" connectable="0" parent="57">
                    <mxGeometry width="790" height="510" as="geometry"/>
                </mxCell>
                <mxCell id="53" value="" style="rounded=0;whiteSpace=wrap;html=1;fontSize=12;fillColor=#6d8764;fontColor=#ffffff;strokeColor=#3A5431;" vertex="1" parent="57">
                    <mxGeometry width="790" height="550" as="geometry"/>
                </mxCell>
                <mxCell id="34" value="" style="rounded=0;whiteSpace=wrap;html=1;fontSize=12;" vertex="1" parent="57">
                    <mxGeometry x="20" y="30" width="360" height="400" as="geometry"/>
                </mxCell>
                <mxCell id="37" value="Pregunta Nº i de n:&lt;br&gt;Categoria: categoria&lt;br&gt;Puntaje: xx" style="rounded=1;whiteSpace=wrap;html=1;fontSize=12;" vertex="1" parent="57">
                    <mxGeometry x="40" y="40" width="310" height="60" as="geometry"/>
                </mxCell>
                <mxCell id="38" value="De que color es el caballo blanco de San Martin?" style="rounded=1;whiteSpace=wrap;html=1;fontSize=12;" vertex="1" parent="57">
                    <mxGeometry x="40" y="110" width="310" height="60" as="geometry"/>
                </mxCell>
                <mxCell id="39" value="" style="rounded=1;whiteSpace=wrap;html=1;fontSize=12;" vertex="1" parent="57">
                    <mxGeometry x="40" y="190" width="310" height="150" as="geometry"/>
                </mxCell>
                <mxCell id="40" value="Opciones" style="text;html=1;strokeColor=none;fillColor=none;align=center;verticalAlign=middle;whiteSpace=wrap;rounded=0;fontSize=12;" vertex="1" parent="57">
                    <mxGeometry x="165" y="195" width="60" height="30" as="geometry"/>
                </mxCell>
                <mxCell id="41" value="&lt;ul&gt;&lt;li style=&quot;&quot;&gt;verde&lt;/li&gt;&lt;li style=&quot;&quot;&gt;celeste&lt;/li&gt;&lt;li style=&quot;&quot;&gt;negro&lt;/li&gt;&lt;li style=&quot;&quot;&gt;blanco&lt;/li&gt;&lt;/ul&gt;" style="rounded=1;whiteSpace=wrap;html=1;fontSize=12;align=center;" vertex="1" parent="57">
                    <mxGeometry x="105" y="230" width="190" height="90" as="geometry"/>
                </mxCell>
                <mxCell id="43" value="" style="rounded=0;whiteSpace=wrap;html=1;fontSize=12;" vertex="1" parent="57">
                    <mxGeometry x="394" y="30" width="360" height="400" as="geometry"/>
                </mxCell>
                <mxCell id="44" value="Pregunta Nº i de n:&lt;br&gt;Categoria: categoria&lt;br&gt;Puntaje: xx" style="rounded=1;whiteSpace=wrap;html=1;fontSize=12;" vertex="1" parent="57">
                    <mxGeometry x="414" y="40" width="310" height="60" as="geometry"/>
                </mxCell>
                <mxCell id="45" value="San Martin tenia caballo?" style="rounded=1;whiteSpace=wrap;html=1;fontSize=12;" vertex="1" parent="57">
                    <mxGeometry x="414" y="110" width="310" height="60" as="geometry"/>
                </mxCell>
                <mxCell id="46" value="" style="rounded=1;whiteSpace=wrap;html=1;fontSize=12;" vertex="1" parent="57">
                    <mxGeometry x="414" y="190" width="310" height="150" as="geometry"/>
                </mxCell>
                <mxCell id="47" value="Opciones" style="text;html=1;strokeColor=none;fillColor=none;align=center;verticalAlign=middle;whiteSpace=wrap;rounded=0;fontSize=12;" vertex="1" parent="57">
                    <mxGeometry x="539" y="195" width="60" height="30" as="geometry"/>
                </mxCell>
                <mxCell id="48" value="&lt;ul&gt;&lt;li&gt;si&lt;/li&gt;&lt;li&gt;no&lt;/li&gt;&lt;/ul&gt;" style="rounded=1;whiteSpace=wrap;html=1;fontSize=12;" vertex="1" parent="57">
                    <mxGeometry x="479" y="230" width="190" height="80" as="geometry"/>
                </mxCell>
                <mxCell id="60" style="edgeStyle=none;html=1;exitX=0.5;exitY=1;exitDx=0;exitDy=0;entryX=0;entryY=0.5;entryDx=0;entryDy=0;fontSize=12;" edge="1" parent="57" source="49" target="58">
                    <mxGeometry relative="1" as="geometry"/>
                </mxCell>
                <mxCell id="49" value="Answer/(finish if question n)" style="rounded=1;whiteSpace=wrap;html=1;fontSize=12;" vertex="1" parent="57">
                    <mxGeometry x="77.5" y="360" width="235" height="50" as="geometry"/>
                </mxCell>
                <mxCell id="61" style="edgeStyle=none;html=1;exitX=0.5;exitY=1;exitDx=0;exitDy=0;entryX=1;entryY=0.5;entryDx=0;entryDy=0;fontSize=12;" edge="1" parent="57" source="50" target="58">
                    <mxGeometry relative="1" as="geometry"/>
                </mxCell>
                <mxCell id="50" value="Answer/(finish if question n)" style="rounded=1;whiteSpace=wrap;html=1;fontSize=12;" vertex="1" parent="57">
                    <mxGeometry x="451.5" y="360" width="235" height="50" as="geometry"/>
                </mxCell>
                <mxCell id="51" value="Multiple choice question" style="text;html=1;strokeColor=none;fillColor=none;align=center;verticalAlign=middle;whiteSpace=wrap;rounded=0;fontSize=12;" vertex="1" parent="57">
                    <mxGeometry x="125" y="440" width="150" height="30" as="geometry"/>
                </mxCell>
                <mxCell id="52" value="True or false question" style="text;html=1;strokeColor=none;fillColor=none;align=center;verticalAlign=middle;whiteSpace=wrap;rounded=0;fontSize=12;" vertex="1" parent="57">
                    <mxGeometry x="489" y="440" width="170" height="30" as="geometry"/>
                </mxCell>
                <mxCell id="58" value="Correcto / incorrecto" style="rounded=1;whiteSpace=wrap;html=1;strokeColor=default;fontSize=12;fillColor=default;" vertex="1" parent="57">
                    <mxGeometry x="321" y="460" width="120" height="60" as="geometry"/>
                </mxCell>
                <mxCell id="59" value="Aviso de resultado" style="text;html=1;strokeColor=none;fillColor=none;align=center;verticalAlign=middle;whiteSpace=wrap;rounded=0;fontSize=12;" vertex="1" parent="57">
                    <mxGeometry x="326" y="520" width="110" height="30" as="geometry"/>
                </mxCell>
                <mxCell id="62" value="Pagina de pregunta" style="text;html=1;strokeColor=none;fillColor=none;align=center;verticalAlign=middle;whiteSpace=wrap;rounded=0;fontSize=12;" vertex="1" parent="57">
                    <mxGeometry x="311" y="560" width="140" height="30" as="geometry"/>
                </mxCell>
                <mxCell id="65" style="edgeStyle=none;html=1;exitX=0.5;exitY=1;exitDx=0;exitDy=0;entryX=0.5;entryY=0;entryDx=0;entryDy=0;fontSize=12;" edge="1" parent="1" source="6" target="53">
                    <mxGeometry relative="1" as="geometry"/>
                </mxCell>
                <mxCell id="74" value="&lt;font color=&quot;#000000&quot;&gt;La pagina de inicio le pide al server&lt;br&gt;la lista de jugadores y puntajes&lt;br&gt;(no los oredenemos por ahora)&lt;br&gt;Mediante el boton de juego nuevo iremos a la pagina de opciones, que prepara una nueva partida.&lt;br&gt;&lt;/font&gt;" style="rounded=1;whiteSpace=wrap;html=1;strokeColor=#6c8ebf;fontSize=12;fillColor=#dae8fc;" vertex="1" parent="1">
                    <mxGeometry x="19" y="330" width="201" height="100" as="geometry"/>
                </mxCell>
                <mxCell id="75" value="&lt;font color=&quot;#000000&quot;&gt;La pagina de opciones le pide al &lt;br&gt;server un set de preguntas &lt;br&gt;en base a lo que eligio el jugador&lt;br&gt;y lo guarda en un estado. Tambien&amp;nbsp;&lt;br&gt;guarda el nombre del usuario, en otro estado, junto con su puntaje&lt;br&gt;Tambien será necesario un estado con el indice de pregunta actual&lt;br&gt;&lt;/font&gt;" style="rounded=1;whiteSpace=wrap;html=1;strokeColor=#6c8ebf;fontSize=12;fillColor=#dae8fc;" vertex="1" parent="1">
                    <mxGeometry x="770" y="10" width="230" height="350" as="geometry"/>
                </mxCell>
                <mxCell id="76" value="&lt;font color=&quot;#000000&quot;&gt;La pagina de pregunta&lt;br&gt;presenta la pregunta actual.&lt;br&gt;Hay dos clases de preguntas, multiple choice y verdadero falso, si que la paginase debera renderizar acorde a esto.&lt;br&gt;Una vez que el jugador selecciono su respuesta al cliquear en answer recibira informacion de si su respuesta fue correcta o incorrecta&lt;br&gt;Ademas, se actualizara su puntaje, y se cambiara a la siguiente pregunta. de no haber mas preguntas la partida concluye y&amp;nbsp;se nos presenta la pantalla de game over.&lt;br&gt;Para ver esto tenemos dos estados, la lista de preguntas y el indice de pregunta actual.&lt;br&gt;Ademas, al finalizar enviara al server el nombre de usuario y puntaje, para que actualize la lista.&lt;br&gt;&lt;/font&gt;" style="rounded=1;whiteSpace=wrap;html=1;strokeColor=#6c8ebf;fontSize=12;fillColor=#dae8fc;" vertex="1" parent="1">
                    <mxGeometry x="840" y="470" width="170" height="550" as="geometry"/>
                </mxCell>
                <mxCell id="78" value="&lt;font color=&quot;#000000&quot;&gt;La pantalla de game over presentara los resultados finales&lt;br&gt;y dara la opcion de empezar una nueva partida, redirigiendo a la pagina de opciones, o la opcion de volver a la pagina de inicio&lt;br&gt;&lt;/font&gt;" style="rounded=1;whiteSpace=wrap;html=1;strokeColor=#6c8ebf;fontSize=12;fillColor=#dae8fc;" vertex="1" parent="1">
                    <mxGeometry x="600" y="1180" width="200" height="310" as="geometry"/>
                </mxCell>
                <mxCell id="79" style="edgeStyle=none;html=1;exitX=0.5;exitY=0;exitDx=0;exitDy=0;entryX=0.5;entryY=0;entryDx=0;entryDy=0;fontSize=12;fontColor=#000000;" edge="1" parent="1" source="59" target="66">
                    <mxGeometry relative="1" as="geometry"/>
                </mxCell>
                <mxCell id="66" value="" style="rounded=0;whiteSpace=wrap;html=1;strokeColor=default;fontSize=12;fillColor=default;" vertex="1" parent="1">
                    <mxGeometry x="240" y="1140" width="330" height="380" as="geometry"/>
                </mxCell>
                <mxCell id="67" value="&lt;b&gt;&lt;font style=&quot;font-size: 15px;&quot;&gt;Partida Finalizada&lt;/font&gt;&lt;/b&gt;" style="text;html=1;strokeColor=none;fillColor=none;align=center;verticalAlign=middle;whiteSpace=wrap;rounded=0;fontSize=12;" vertex="1" parent="1">
                    <mxGeometry x="345" y="1160" width="130" height="30" as="geometry"/>
                </mxCell>
                <mxCell id="68" value="&lt;b&gt;Resultado&lt;/b&gt;" style="text;html=1;strokeColor=none;fillColor=none;align=center;verticalAlign=middle;whiteSpace=wrap;rounded=0;fontSize=14;" vertex="1" parent="1">
                    <mxGeometry x="367.5" y="1200" width="75" height="30" as="geometry"/>
                </mxCell>
                <mxCell id="69" value="&lt;font style=&quot;font-size: 12px;&quot;&gt;Respuestas correctas: x de n&lt;/font&gt;" style="text;html=1;strokeColor=none;fillColor=none;align=center;verticalAlign=middle;whiteSpace=wrap;rounded=0;fontSize=15;" vertex="1" parent="1">
                    <mxGeometry x="320" y="1250" width="180" height="30" as="geometry"/>
                </mxCell>
                <mxCell id="70" value="Puntaje: xx puntos" style="text;html=1;strokeColor=none;fillColor=none;align=center;verticalAlign=middle;whiteSpace=wrap;rounded=0;fontSize=12;" vertex="1" parent="1">
                    <mxGeometry x="330" y="1310" width="160" height="30" as="geometry"/>
                </mxCell>
                <mxCell id="71" value="Nueva Partida" style="rounded=1;whiteSpace=wrap;html=1;strokeColor=default;fontSize=12;fillColor=default;" vertex="1" parent="1">
                    <mxGeometry x="270" y="1420" width="120" height="60" as="geometry"/>
                </mxCell>
                <mxCell id="72" value="Inicio" style="rounded=1;whiteSpace=wrap;html=1;strokeColor=default;fontSize=12;fillColor=default;" vertex="1" parent="1">
                    <mxGeometry x="420" y="1420" width="120" height="60" as="geometry"/>
                </mxCell>
                <mxCell id="73" value="Pagina game over" style="text;html=1;strokeColor=none;fillColor=none;align=center;verticalAlign=middle;whiteSpace=wrap;rounded=0;fontSize=12;" vertex="1" parent="1">
                    <mxGeometry x="347.5" y="1550" width="115" height="30" as="geometry"/>
                </mxCell>
                <mxCell id="81" value="&lt;font color=&quot;#ffffff&quot;&gt;Maximo puntaje: xxx puntos&lt;/font&gt;" style="text;html=1;strokeColor=none;fillColor=none;align=center;verticalAlign=middle;whiteSpace=wrap;rounded=0;fontSize=12;fontColor=#000000;" vertex="1" parent="1">
                    <mxGeometry x="315" y="1350" width="190" height="30" as="geometry"/>
                </mxCell>
            </root>
        </mxGraphModel>
    </diagram>
</mxfile>